#!OML:ASF X:\für Bonn\!DataBase\2005_08_11_Bastian_Final\c3d\Bastian.ASF
:FULLY-SPECIFIED
:DEGREES
196
root -0.156177 17.2948 -0.486541 170.833 -3.01807 -176.024
lowerback 8.13628 -1.11437 -0.00188573
upperback 8.39337 -2.51434 0.595848
thorax 4.19635 -1.70545 0.695122
lowerneck -6.74034 -4.17821 -1.65848
upperneck -6.41998 -4.54977 9.51124
head -0.588871 -1.98546 3.2622
rclavicle -4.09496e-014 1.27222e-014
rhumerus -17.0959 -34.9659 -12.0537
rradius 38.0757
rwrist -165.677
rhand -15.8645 2.57287
rfingers 7.12502
rthumb 10.3309 -27.1534
lclavicle -4.09496e-014 1.27222e-014
lhumerus -47.6718 56.057 -17.2737
lradius 26.4491
lwrist 175.381
lhand -17.7296 7.37196
lfingers 7.12502
lthumb 8.53134 37.1796
rfemur -1.81348 3.21801 24.8675
rtibia 39.1271
rfoot -19.7045 -15.9764
rtoes -7.61258
lfemur 5.75489 6.39267 -14.1773
ltibia 27.8979
lfoot -17.9736 -2.36274
ltoes -7.34852
197
root -0.17099 17.2881 -0.487657 170.766 -2.79398 -176.014
lowerback 8.3611 -1.06572 -0.0100293
upperback 8.42917 -2.46579 0.558266
thorax 4.10803 -1.68819 0.666071
lowerneck -6.63173 -4.19661 -1.63678
upperneck -6.54427 -4.55391 9.60627
head -0.645164 -1.99017 3.29491
rclavicle -1.14301e-014 9.54166e-015
rhumerus -17.2735 -33.5951 -13.0052
rradius 38.9821
rwrist -166.391
rhand -16.5154 2.32535
rfingers 7.12502
rthumb 9.70296 -27.4312
lclavicle -1.14301e-014 9.54166e-015
lhumerus -47.5515 56.0145 -16.3409
lradius 26.6116
lwrist 175.236
lhand -18.1937 7.74315
lfingers 7.12502
lthumb 8.08343 37.5686
rfemur -2.19137 2.75993 24.6981
rtibia 39.8185
rfoot -19.5306 -15.4867
rtoes -7.95206
lfemur 5.84206 6.57235 -14.1645
ltibia 27.9946
lfoot -18.0777 -2.36939
ltoes -7.12433
198
root -0.185787 17.2812 -0.488922 170.684 -2.59636 -175.999
lowerback 8.60814 -1.02661 0.000856391
upperback 8.47046 -2.4311 0.516712
thorax 4.01292 -1.6777 0.623343
lowerneck -6.55396 -4.21677 -1.64659
upperneck -6.65429 -4.55683 9.74092
head -0.689877 -1.99184 3.34647
rclavicle 1.32192e-014 -1.55052e-014
rhumerus -17.5299 -32.0765 -13.9432
rradius 39.9878
rwrist -167.232
rhand -17.1278 2.01522
rfingers 7.12502
rthumb 9.11199 -27.7679
lclavicle 1.32192e-014 -1.55052e-014
lhumerus -47.5051 56.019 -15.4262
lradius 26.7685
lwrist 175.121
lhand -18.6367 8.1866
lfingers 7.12502
lthumb 7.65578 38.028
rfemur -2.59016 2.33724 24.5495
rtibia 40.5759
rfoot -19.3669 -15.0498
rtoes -8.36854
lfemur 5.93323 6.72201 -14.1569
ltibia 28.0937
lfoot -18.1925 -2.35685
ltoes -7.04885
199
root -0.198788 17.2744 -0.490661 170.614 -2.4287 -175.998
lowerback 8.83261 -0.99308 0.00515585
upperback 8.52518 -2.40505 0.445681
thorax 3.94381 -1.67147 0.552712
lowerneck -6.5049 -4.24911 -1.60177
upperneck -6.74917 -4.58028 9.85258
head -0.725634 -2.00356 3.37868
rclavicle 8.15017e-015 -2.38542e-015
rhumerus -17.8511 -30.6542 -14.9374
rradius 41.0363
rwrist -168.057
rhand -17.6957 1.64467
rfingers 7.12502
rthumb 8.56401 -28.1617
lclavicle 8.15017e-015 -2.38542e-015
lhumerus -47.2643 55.9119 -14.3013
lradius 26.9147
lwrist 175.212
lhand -18.9743 8.64643
lfingers 7.12502
lthumb 7.32997 38.4995
rfemur -3.03137 1.96145 24.4095
rtibia 41.3843
rfoot -19.2003 -14.654
rtoes -8.43515
lfemur 6.00104 6.909 -14.1365
ltibia 28.195
lfoot -18.2801 -2.437
ltoes -6.91007
200
root -0.211938 17.2679 -0.491488 170.545 -2.28383 -176.019
lowerback 9.08441 -0.974041 -0.0448169
upperback 8.55988 -2.39963 0.398657
thorax 3.84185 -1.6781 0.539923
lowerneck -6.4273 -4.27704 -1.61933
upperneck -6.8268 -4.59993 9.96962
head -0.759222 -2.01446 3.42495
rclavicle -1.11319e-014 -7.15625e-015
rhumerus -18.1633 -29.1471 -15.935
rradius 42.1427
rwrist -168.944
rhand -18.2508 1.25179
rfingers 7.12502
rthumb 8.02832 -28.5757
lclavicle -1.11319e-014 -7.15625e-015
lhumerus -46.9886 55.6633 -13.0224
lradius 27.078
lwrist 175.327
lhand -19.2939 9.01627
lfingers 7.12502
lthumb 7.02144 38.8798
rfemur -3.51239 1.59223 24.2546
rtibia 42.2463
rfoot -18.9864 -14.3242
rtoes -8.4733
lfemur 6.06542 7.08187 -14.1488
ltibia 28.2938
lfoot -18.3511 -2.49278
ltoes -6.71025
201
root -0.224068 17.2617 -0.493597 170.46 -2.14929 -175.993
lowerback 9.34627 -0.96591 -0.0352478
upperback 8.59591 -2.40655 0.351903
thorax 3.73417 -1.68832 0.495208
lowerneck -6.32492 -4.30407 -1.63647
upperneck -6.90496 -4.61853 10.0929
head -0.797203 -2.02595 3.47403
rclavicle -7.65321e-015 7.15625e-015
rhumerus -18.5325 -27.5757 -16.9515
rradius 43.3179
rwrist -169.903
rhand -18.7553 0.791378
rfingers 7.12502
rthumb 7.54133 -29.0542
lclavicle -7.65321e-015 7.15625e-015
lhumerus -46.7028 55.4447 -11.7325
lradius 27.2752
lwrist 175.323
lhand -19.6985 9.25146
lfingers 7.12502
lthumb 6.63093 39.1276
rfemur -4.01339 1.23617 24.1622
rtibia 43.1487
rfoot -18.7564 -14.0007
rtoes -8.21332
lfemur 6.13665 7.24144 -14.1023
ltibia 28.423
lfoot -18.447 -2.54965
ltoes -6.666
202
root -0.235991 17.2533 -0.495281 170.374 -2.0417 -176.015
lowerback 9.60314 -0.957674 -0.0522727
upperback 8.65162 -2.41792 0.269173
thorax 3.64974 -1.70247 0.427554
lowerneck -6.25852 -4.33575 -1.57964
upperneck -6.99741 -4.64354 10.1837
head -0.836034 -2.04019 3.49745
rclavicle -9.44227e-015 -9.14409e-015
rhumerus -18.9513 -26.1547 -18.018
rradius 44.5206
rwrist -170.706
rhand -19.3131 0.188888
rfingers 7.12502
rthumb 7.00293 -29.6753
lclavicle -9.44227e-015 -9.14409e-015
lhumerus -46.3146 55.2148 -10.3443
lradius 27.4479
lwrist 175.392
lhand -20.0727 9.32998
lfingers 7.12502
lthumb 6.26965 39.2172
rfemur -4.54597 0.896256 24.0169
rtibia 44.0994
rfoot -18.5161 -13.6755
rtoes -7.60022
lfemur 6.19713 7.34202 -14.13
ltibia 28.5655
lfoot -18.5675 -2.58908
ltoes -6.49407
203
root -0.247268 17.2429 -0.498383 170.308 -1.93831 -176.012
lowerback 9.82367 -0.955913 -0.0588126
upperback 8.70832 -2.43741 0.210721
thorax 3.58731 -1.72059 0.378321
lowerneck -6.18676 -4.3722 -1.64169
upperneck -7.07588 -4.6669 10.3681
head -0.865816 -2.05101 3.57575
rclavicle -3.57812e-015 -2.38542e-014
rhumerus -19.3747 -24.7991 -19.0897
rradius 45.7619
rwrist -171.487
rhand -19.875 -0.538955
rfingers 7.12502
rthumb 6.46052 -30.4204
lclavicle -3.57812e-015 -2.38542e-014
lhumerus -45.938 54.9512 -8.88431
lradius 27.6444
lwrist 175.462
lhand -20.4134 9.3317
lfingers 7.12502
lthumb 5.94075 39.2284
rfemur -5.12818 0.562918 23.9118
rtibia 45.0795
rfoot -18.2052 -13.3975
rtoes -6.95234
lfemur 6.23114 7.4846 -14.1106
ltibia 28.7289
lfoot -18.6757 -2.67874
ltoes -6.37066
204
root -0.257516 17.2328 -0.501138 170.225 -1.87084 -176.027
lowerback 10.089 -0.963345 -0.103689
upperback 8.75871 -2.47286 0.162406
thorax 3.49585 -1.74931 0.364151
lowerneck -6.14175 -4.41011 -1.68664
upperneck -7.1011 -4.70528 10.4976
head -0.874642 -2.06983 3.62999
rclavicle -5.66536e-015 2.38542e-015
rhumerus -19.8001 -23.3629 -20.17
rradius 47.0361
rwrist -172.275
rhand -20.4249 -1.27415
rfingers 7.12502
rthumb 5.92959 -31.1712
lclavicle -5.66536e-015 2.38542e-015
lhumerus -45.5635 54.686 -7.38458
lradius 27.8149
lwrist 175.543
lhand -20.7353 9.30183
lfingers 7.12502
lthumb 5.62988 39.207
rfemur -5.72026 0.242152 23.798
rtibia 46.0731
rfoot -17.8863 -13.1562
rtoes -6.18005
lfemur 6.28241 7.59519 -14.1127
ltibia 28.8748
lfoot -18.7874 -2.74481
ltoes -6.41321
